# xmcd
#
# Track frame offsets:
#	150
#	24271
#	58746
#	79605
#	116884
#	162013
#	189555
#
# Disc length: 2924 seconds
#
# Revision: 0
# Processed by: cddbd v1.5.2PL0 Copyright (c) Steve Scherf et al.
# Submitted via: audiograbber 1.83.01
#
DISCID=500b6a07
DTITLE=Grateful Dead - 82-10-10 Frost Amphitheatre, Palo Alto CA
DYEAR=1900
DGENRE=
TTITLE0=The Wheel
TTITLE1=Throwing Stones
TTITLE2=Not Fade Away
TTITLE3=Black Peter
TTITLE4=Sugar Magnolia
TTITLE5=Satisfaction
TTITLE6=It's All Over Now, Baby Blue
EXTD=
EXTT0=
EXTT1=
EXTT2=
EXTT3=
EXTT4=
EXTT5=
EXTT6=
PLAYORDER=
